<svg width="177" height="55" viewBox="0 0 177 55" fill="none" xmlns="http://www.w3.org/2000/svg">
<path d="M0 0H2V55H0V0Z" fill="#16CFB1"/>
<path d="M13.91 2.26C16.955 2.26 19.235 4.63 19.235 7.735C19.235 10.84 16.925 13.24 13.895 13.24C10.85 13.24 8.555 10.87 8.555 7.765C8.555 4.66 10.88 2.26 13.91 2.26ZM13.91 12.085C16.205 12.085 17.915 10.225 17.915 7.765C17.915 5.305 16.175 3.415 13.895 3.415C11.585 3.415 9.875 5.29 9.875 7.735C9.875 10.18 11.615 12.085 13.91 12.085ZM20.587 15.7V5.755H21.787V6.925C22.417 6.1 23.377 5.59 24.472 5.59C26.392 5.59 28.042 7.045 28.042 9.355C28.042 11.71 26.302 13.165 24.382 13.165C23.392 13.165 22.447 12.73 21.802 11.98V15.7H20.587ZM21.757 9.415C21.757 10.975 22.882 12.1 24.292 12.1C25.717 12.1 26.797 11.08 26.797 9.385C26.797 7.69 25.732 6.67 24.337 6.67C22.912 6.67 21.757 7.825 21.757 9.415ZM32.7978 12.19C33.7128 12.19 34.5378 11.815 35.2428 10.945L35.9778 11.62C35.1678 12.67 34.0878 13.225 32.6928 13.225C30.5328 13.225 28.9728 11.65 28.9728 9.4C28.9728 7.21 30.5928 5.575 32.6628 5.575C34.7328 5.575 36.2328 7.045 36.2328 9.31C36.2328 9.505 36.2028 9.745 36.1878 9.82H30.2328C30.3978 11.29 31.4928 12.19 32.7978 12.19ZM32.6778 6.61C31.4778 6.61 30.4428 7.435 30.2328 8.875H35.0028C34.8228 7.465 33.9078 6.61 32.6778 6.61ZM38.662 5.755V6.88C39.202 6.085 40.087 5.575 41.257 5.575C43.252 5.575 44.317 7 44.317 9.055V13H43.102V9.13C43.102 7.675 42.367 6.67 40.972 6.67C39.532 6.67 38.677 7.765 38.677 9.205V13H37.462V5.755H38.662ZM48.7602 2.5H56.3802V3.64H50.0502V7.135H55.9602V8.275H50.0502V11.86H56.3802V13H48.7602V2.5ZM65.0512 2.5V13H63.8362V11.83C63.2062 12.64 62.2462 13.15 61.1512 13.15C59.2462 13.15 57.5812 11.71 57.5812 9.4C57.5812 7.045 59.3362 5.575 61.2412 5.575C62.2462 5.575 63.1762 6.01 63.8212 6.76V2.5H65.0512ZM63.8662 9.355C63.8662 7.765 62.7562 6.655 61.3462 6.655C59.9212 6.655 58.8262 7.69 58.8262 9.37C58.8262 11.05 59.8912 12.085 61.2862 12.085C62.7112 12.085 63.8662 10.93 63.8662 9.355ZM72.552 12.145V11.635C71.907 12.415 70.947 12.895 69.867 12.895C67.962 12.895 66.297 11.515 66.297 9.25C66.297 7.03 67.962 5.575 69.912 5.575C70.962 5.575 71.922 6.04 72.567 6.835V5.755H73.782V12.1C73.782 14.305 72.702 15.7 69.927 15.7H68.097V14.65H69.987C71.697 14.65 72.552 13.795 72.552 12.145ZM72.612 9.25C72.612 7.735 71.442 6.655 70.047 6.655C68.622 6.655 67.542 7.6 67.542 9.235C67.542 10.84 68.622 11.815 70.047 11.815C71.442 11.815 72.612 10.735 72.612 9.25ZM78.8525 12.19C79.7675 12.19 80.5925 11.815 81.2975 10.945L82.0325 11.62C81.2225 12.67 80.1425 13.225 78.7475 13.225C76.5875 13.225 75.0275 11.65 75.0275 9.4C75.0275 7.21 76.6475 5.575 78.7175 5.575C80.7875 5.575 82.2875 7.045 82.2875 9.31C82.2875 9.505 82.2575 9.745 82.2425 9.82H76.2875C76.4525 11.29 77.5475 12.19 78.8525 12.19ZM78.7325 6.61C77.5325 6.61 76.4975 7.435 76.2875 8.875H81.0575C80.8775 7.465 79.9625 6.61 78.7325 6.61ZM86.4652 2.5H91.0252C93.3802 2.5 94.7452 3.79 94.7452 5.695C94.7452 7.66 93.1852 8.965 90.7852 8.965H87.7552V13H86.4652V2.5ZM90.9802 3.67H87.7552V7.81H90.8752C92.4952 7.81 93.4252 6.955 93.4252 5.725C93.4252 4.48 92.5702 3.67 90.9802 3.67ZM97.201 2.5V13H95.971V2.5H97.201ZM103.967 13V11.815C103.367 12.67 102.317 13.15 101.192 13.15C99.6018 13.15 98.4918 12.28 98.4918 10.945C98.4918 9.58 99.4668 8.725 101.822 8.725H103.952C103.937 7.36 103.217 6.595 101.942 6.595C101.132 6.595 100.397 6.955 99.7218 7.57L99.0768 6.76C99.8268 6.04 100.817 5.545 102.062 5.545C104.087 5.545 105.152 6.865 105.152 8.785V13H103.967ZM101.837 9.67C100.262 9.67 99.6918 10.12 99.6918 10.915C99.6918 11.575 100.292 12.175 101.327 12.175C102.662 12.175 103.877 11.245 103.952 9.67H101.837ZM106.978 11.065V6.835H105.988V5.755H106.978V3.535H108.193V5.755H109.873V6.835H108.193V10.96C108.193 11.65 108.523 11.905 109.078 11.905H109.873V13H108.898C107.548 13 106.978 12.4 106.978 11.065ZM110.59 6.835V5.755H111.58V4.39C111.58 3.16 112.255 2.5 113.47 2.5H114.46V3.52H113.65C113.125 3.52 112.81 3.79 112.81 4.42V5.755H114.46V6.835H112.81V13H111.58V6.835H110.59ZM118.694 13.225C116.549 13.225 114.944 11.56 114.944 9.4C114.944 7.24 116.579 5.56 118.739 5.56C120.884 5.56 122.489 7.225 122.489 9.385C122.489 11.545 120.854 13.225 118.694 13.225ZM118.724 12.16C120.149 12.16 121.244 10.96 121.244 9.385C121.244 7.855 120.149 6.625 118.709 6.625C117.284 6.625 116.189 7.825 116.189 9.4C116.189 10.945 117.284 12.16 118.724 12.16ZM124.956 5.755V6.67C125.391 6.025 126.096 5.71 127.056 5.71H127.716V6.865H127.041C125.646 6.865 124.971 7.6 124.971 9.04V13H123.756V5.755H124.956ZM129.907 5.755V6.625C130.402 5.98 131.077 5.575 131.992 5.575C133.057 5.575 133.822 6.055 134.257 6.805C134.767 6.055 135.592 5.575 136.687 5.575C138.502 5.575 139.477 6.925 139.477 8.545V13H138.247V8.62C138.247 7.465 137.662 6.67 136.507 6.67C135.382 6.67 134.692 7.555 134.692 8.695V13H133.477V8.62C133.477 7.465 132.892 6.67 131.737 6.67C130.612 6.67 129.922 7.555 129.922 8.695V13H128.707V5.755H129.907Z" fill="#2B2C30"/>
<path d="M9.3 18H19.46V19.52H11.02V24.18H18.9V25.7H11.02V30.48H19.46V32H9.3V18ZM31.0214 18V32H29.4014V30.44C28.5614 31.52 27.2814 32.2 25.8214 32.2C23.2814 32.2 21.0614 30.28 21.0614 27.2C21.0614 24.06 23.4014 22.1 25.9414 22.1C27.2814 22.1 28.5214 22.68 29.3814 23.68V18H31.0214ZM29.4414 27.14C29.4414 25.02 27.9614 23.54 26.0814 23.54C24.1814 23.54 22.7214 24.92 22.7214 27.16C22.7214 29.4 24.1414 30.78 26.0014 30.78C27.9014 30.78 29.4414 29.24 29.4414 27.14ZM41.0225 30.86V30.18C40.1625 31.22 38.8825 31.86 37.4425 31.86C34.9025 31.86 32.6825 30.02 32.6825 27C32.6825 24.04 34.9025 22.1 37.5025 22.1C38.9025 22.1 40.1825 22.72 41.0425 23.78V22.34H42.6625V30.8C42.6625 33.74 41.2225 35.6 37.5225 35.6H35.0825V34.2H37.6025C39.8825 34.2 41.0225 33.06 41.0225 30.86ZM41.1025 27C41.1025 24.98 39.5425 23.54 37.6825 23.54C35.7825 23.54 34.3425 24.8 34.3425 26.98C34.3425 29.12 35.7825 30.42 37.6825 30.42C39.5425 30.42 41.1025 28.98 41.1025 27ZM49.4231 30.92C50.6431 30.92 51.7431 30.42 52.6831 29.26L53.6631 30.16C52.5831 31.56 51.1431 32.3 49.2831 32.3C46.4031 32.3 44.3231 30.2 44.3231 27.2C44.3231 24.28 46.4831 22.1 49.2431 22.1C52.0031 22.1 54.0031 24.06 54.0031 27.08C54.0031 27.34 53.9631 27.66 53.9431 27.76H46.0031C46.2231 29.72 47.6831 30.92 49.4231 30.92ZM49.2631 23.48C47.6631 23.48 46.2831 24.58 46.0031 26.5H52.3631C52.1231 24.62 50.9031 23.48 49.2631 23.48ZM73.5934 18V32H71.8734V20.2L67.2934 28.2H65.8934L61.2934 20.22V32H59.5734V18H61.8534L66.5934 26.18L71.3134 18H73.5934ZM77.8545 19.1V20.88H76.0545V19.1H77.8545ZM76.1345 22.34H77.7745V32H76.1345V22.34ZM84.6356 32.3C81.7156 32.3 79.6356 30.3 79.6356 27.2C79.6356 24.3 81.8556 22.08 84.6756 22.08C86.7356 22.08 88.2156 23.06 88.9556 24.84L87.5756 25.5C86.9756 24.2 86.0156 23.5 84.6556 23.5C82.7356 23.5 81.2956 25.14 81.2956 27.2C81.2956 29.28 82.7356 30.88 84.6956 30.88C85.9156 30.88 87.0756 30.2 87.7556 28.94L89.0156 29.62C88.2756 31.22 86.6756 32.3 84.6356 32.3ZM92.242 22.34V23.56C92.822 22.7 93.762 22.28 95.042 22.28H95.922V23.82H95.022C93.162 23.82 92.262 24.8 92.262 26.72V32H90.642V22.34H92.242ZM101.55 32.3C98.6897 32.3 96.5497 30.08 96.5497 27.2C96.5497 24.32 98.7297 22.08 101.61 22.08C104.47 22.08 106.61 24.3 106.61 27.18C106.61 30.06 104.43 32.3 101.55 32.3ZM101.59 30.88C103.49 30.88 104.95 29.28 104.95 27.18C104.95 25.14 103.49 23.5 101.57 23.5C99.6697 23.5 98.2097 25.1 98.2097 27.2C98.2097 29.26 99.6697 30.88 101.59 30.88ZM106.893 22.34H108.673L111.813 30.06L114.933 22.34H116.613L112.513 32H111.033L106.893 22.34ZM119.827 19.1V20.88H118.027V19.1H119.827ZM118.107 22.34H119.747V32H118.107V22.34ZM125.648 32.26C124.028 32.26 122.588 31.74 121.428 30.7L122.268 29.46C123.548 30.52 124.548 30.9 125.688 30.9C127.308 30.9 128.268 30.2 128.268 29.28C128.268 28.38 127.708 27.9 125.688 27.86C122.908 27.76 121.808 26.86 121.808 25.06C121.808 23.4 123.328 22.08 125.628 22.08C127.148 22.08 128.488 22.56 129.588 23.5L128.808 24.72C127.628 23.78 126.668 23.46 125.608 23.46C124.208 23.46 123.368 24.18 123.368 24.98C123.368 25.8 123.888 26.3 125.708 26.38C128.668 26.46 129.828 27.32 129.828 29.18C129.828 30.98 128.168 32.26 125.648 32.26ZM136.022 32.3C133.162 32.3 131.022 30.08 131.022 27.2C131.022 24.32 133.202 22.08 136.082 22.08C138.942 22.08 141.082 24.3 141.082 27.18C141.082 30.06 138.902 32.3 136.022 32.3ZM136.062 30.88C137.962 30.88 139.422 29.28 139.422 27.18C139.422 25.14 137.962 23.5 136.042 23.5C134.142 23.5 132.682 25.1 132.682 27.2C132.682 29.26 134.142 30.88 136.062 30.88ZM144.371 22.34V23.56C144.951 22.7 145.891 22.28 147.171 22.28H148.051V23.82H147.151C145.291 23.82 144.391 24.8 144.391 26.72V32H142.771V22.34H144.371ZM8.4 39.56V38H20.98V39.56H15.56V52H13.84V39.56H8.4ZM25.0458 52.3C22.1858 52.3 20.0458 50.08 20.0458 47.2C20.0458 44.32 22.2258 42.08 25.1058 42.08C27.9658 42.08 30.1058 44.3 30.1058 47.18C30.1058 50.06 27.9258 52.3 25.0458 52.3ZM25.0858 50.88C26.9858 50.88 28.4458 49.28 28.4458 47.18C28.4458 45.14 26.9858 43.5 25.0658 43.5C23.1658 43.5 21.7058 45.1 21.7058 47.2C21.7058 49.26 23.1658 50.88 25.0858 50.88ZM36.3544 52.3C33.4944 52.3 31.3544 50.08 31.3544 47.2C31.3544 44.32 33.5344 42.08 36.4144 42.08C39.2744 42.08 41.4144 44.3 41.4144 47.18C41.4144 50.06 39.2344 52.3 36.3544 52.3ZM36.3944 50.88C38.2944 50.88 39.7544 49.28 39.7544 47.18C39.7544 45.14 38.2944 43.5 36.3744 43.5C34.4744 43.5 33.0144 45.1 33.0144 47.2C33.0144 49.26 34.4744 50.88 36.3944 50.88ZM44.923 38V52H43.283V38H44.923ZM48.8441 38V46.44L53.3641 42.34H55.5241V42.38L50.3441 46.94L55.5441 51.96V52H53.3841L48.8441 47.52V52H47.2241V38H48.8441ZM58.5577 39.1V40.88H56.7577V39.1H58.5577ZM56.8377 42.34H58.4777V52H56.8377V42.34ZM61.3188 49.42V43.78H59.9988V42.34H61.3188V39.38H62.9388V42.34H65.1788V43.78H62.9388V49.28C62.9388 50.2 63.3788 50.54 64.1188 50.54H65.1788V52H63.8788C62.0788 52 61.3188 51.2 61.3188 49.42Z" fill="#2B2C30"/>
</svg>